Coordinates
version=1
nRows=7
nColumns=63
inDegrees=yes

Units are S.I. units (second, meters, Newtons, ...)
If the header above contains a line with 'inDegrees', this indicates whether rotational values are in degrees (yes) or radians (no).

endheader
time	pelvis_tilt	pelvis_list	pelvis_rotation	pelvis_tx	pelvis_ty	pelvis_tz	hip_flexion_r	hip_adduction_r	hip_rotation_r	knee_angle_r	knee_angle_r_beta	ankle_angle_r	subtalar_angle_r	mtp_angle_r	hip_flexion_l	hip_adduction_l	hip_rotation_l	knee_angle_l	knee_angle_l_beta	ankle_angle_l	subtalar_angle_l	mtp_angle_l	L5_S1_Flex_Ext	L5_S1_Lat_Bending	L5_S1_axial_rotation	L4_L5_Flex_Ext	L4_L5_Lat_Bending	L4_L5_axial_rotation	L3_L4_Flex_Ext	L3_L4_Lat_Bending	L3_L4_axial_rotation	L2_L3_Flex_Ext	L2_L3_Lat_Bending	L2_L3_axial_rotation	L1_L2_Flex_Ext	L1_L2_Lat_Bending	L1_L2_axial_rotation	L1_T12_Flex_Ext	L1_T12_Lat_Bending	L1_T12_axial_rotation	Abs_r3	Abs_r2	Abs_r1	Abs_t1	Abs_t2	neck_flexion	neck_bending	neck_rotation	arm_flex_r	arm_add_r	arm_rot_r	elbow_flex_r	pro_sup_r	wrist_flex_r	wrist_dev_r	arm_flex_l	arm_add_l	arm_rot_l	elbow_flex_l	pro_sup_l	wrist_flex_l	wrist_dev_l
      5.16666667	     -1.55083193	     -2.49234682	     83.22804346	      0.18046055	      0.66694075	      0.54122865	      2.07999355	     -0.70791944	     -3.19356988	     10.09811094	      0.17624528	     38.47668138	     -2.44515057	      0.00000000	     -1.19564574	      0.78728447	     -8.15414759	      4.35407372	      0.07599292	     40.74380043	     10.42410759	      0.00000000	      0.13192364	      0.97348994	      1.72547437	      0.24499539	      1.29474161	      1.83331651	      0.21673735	      2.36694343	      1.83331651	      0.15077553	      2.36694343	      1.50979007	      0.12250429	      1.98514068	      1.40194792	      0.07538117	      1.50793591	      1.29410578	      0.94231736	     11.01231285	      9.59657079	      0.00000000	      0.00000000	     26.00027626	     -6.74969091	     11.15853384	     18.28517474	    -19.09540960	    105.51103169	      7.92798838	      2.74143474	      1.63285410	     -6.69051984	     34.63507978	    -21.51648253	      3.62209659	    128.89322995	     74.54723604	     38.79449754	     14.97349639
      5.18333333	     -1.73106355	     -2.69205860	     83.23898194	      0.18057688	      0.66684721	      0.54493502	      2.70086969	     -0.85456127	     -3.20880193	     10.34066263	      0.18047861	     38.74272311	     -2.37425895	      0.00000000	     -0.70367975	      0.89908363	     -8.12711540	      4.50063314	      0.07855087	     40.62054235	     10.39816374	      0.00000000	      0.11877497	      0.93194866	      1.66429353	      0.22057700	      1.23949172	      1.76831187	      0.19513540	      2.26593998	      1.76831187	      0.13574792	      2.26593998	      1.45625684	      0.11029444	      1.90042972	      1.35223849	      0.06786802	      1.44358848	      1.24822015	      0.84839775	     10.54238968	      9.25630132	      0.00000000	      0.00000000	     25.67821235	     -6.08032756	     10.40315543	     19.32749520	    -18.77687008	    105.23641595	      7.90942659	      2.71273008	      1.91446465	     -6.44741373	     34.44815258	    -20.66537711	      2.60006396	    128.19304171	     74.38124222	     37.69400122	     15.09755399
      5.20000000	     -1.88084772	     -3.19786143	     83.25514672	      0.18035300	      0.66647112	      0.54845684	      3.70403868	     -1.03537332	     -4.04602414	     10.69968952	      0.18674481	     39.27758416	     -1.23432108	      0.00000000	      0.17229747	      0.94222398	     -8.21664859	      4.85038105	      0.08465512	     40.42982056	     10.31180000	      0.00000000	      0.14660516	      0.89979448	      1.48979047	      0.27226044	      1.19672666	      1.58290238	      0.24085761	      2.18776031	      1.58290238	      0.16755503	      2.18776031	      1.30356666	      0.13613755	      1.83486091	      1.21045476	      0.08377019	      1.39378165	      1.11734285	      1.04718598	     10.17865515	      8.28576766	      0.00000000	      0.00000000	     25.55538724	     -5.44203557	     10.13792374	     20.48272821	    -18.24247015	    105.65431995	      7.85066715	      2.89054486	      2.42058621	     -5.68932017	     34.43168774	    -21.63086787	      4.21547401	    129.21973313	     72.71235564	     34.14754821	     16.07098139
      5.21666667	     -1.77190005	     -3.72674098	     83.09092447	      0.17950281	      0.66648001	      0.55147006	      4.61632537	     -1.12324741	     -6.24088195	     10.93864000	      0.19091528	     39.82733612	      1.95667358	      0.00000000	      0.90951638	      0.76821059	     -8.76539426	      5.04421160	      0.08803810	     40.17340899	     10.38258026	      0.00000000	      0.16632005	      0.92255750	      1.25315163	      0.30887296	      1.22700148	      1.33147361	      0.27324720	      2.24310631	      1.33147361	      0.19008718	      2.24310631	      1.09650768	      0.15444479	      1.88127926	      1.01818570	      0.09503527	      1.42904157	      0.93986372	      1.18800745	     10.43615499	      6.96965344	      0.00000000	      0.00000000	     25.43328897	     -4.98870395	     11.03017323	     21.80555986	    -17.76045572	    108.57121140	      7.67173875	      2.68698988	      2.83348244	     -5.37480818	     34.58716592	    -22.82869432	      6.83085457	    131.08592584	     68.74093260	     33.42855130	     18.60910165
      5.23333333	     -1.47673753	     -4.28788991	     83.00405070	      0.17850660	      0.66661128	      0.55418085	      5.44015668	     -0.82752886	     -6.64245251	     10.99932088	      0.19197436	     39.80453339	      2.50647068	      0.00000000	      1.65736721	      0.40658106	     -9.21989330	      5.27726230	      0.09210560	     39.82864654	     10.13073943	      0.00000000	      0.18826320	      0.97731802	      0.99413045	      0.34962359	      1.29983297	      1.05626361	      0.30929761	      2.37625103	      1.05626361	      0.21516601	      2.37625103	      0.86986415	      0.17482121	      1.99294691	      0.80773099	      0.10757359	      1.51386561	      0.74559784	      1.34474520	     11.05561691	      5.52905534	      0.00000000	      0.00000000	     25.28904260	     -4.67596086	     12.54844585	     22.96829282	    -17.53445994	    109.77535876	      8.01440652	      3.20072175	      3.02496562	     -5.15272238	     35.11942408	    -24.33322440	     10.72889643	    132.79909831	     66.69510131	     32.81487136	     17.93926963
      5.25000000	     -1.16638796	     -4.77922818	     83.06439084	      0.17737486	      0.66679032	      0.55656120	      6.09358626	     -0.54130709	     -7.27749017	     10.96236754	      0.19132941	     39.68347067	      3.23048395	      0.00000000	      2.27059432	      0.04380743	     -9.64404833	      5.39750114	      0.09420417	     39.48252938	     10.11167899	      0.00000000	      0.19967756	      1.03811957	      0.73600214	      0.37082120	      1.38069903	      0.78200228	      0.32805027	      2.52408392	      0.78200228	      0.22821149	      2.52408392	      0.64400188	      0.18542059	      2.11693343	      0.59800174	      0.11409576	      1.60804721	      0.55200161	      1.42627687	     11.74341620	      4.09342312	      0.00000000	      0.00000000	     25.14920310	     -4.49944913	     14.34229370	     23.89966778	    -17.37060253	    111.01758820	      8.28137156	      3.42424190	      3.25340076	     -5.45040905	     35.80101106	    -25.46415164	     14.29252310	    134.28148056	     65.24698099	     31.39482673	     17.85033399
      5.26666667	     -0.92105302	     -5.22486882	     83.18820418	      0.17638567	      0.66670122	      0.55920713	      6.72032681	     -0.33435911	     -8.07218846	     10.98239190	      0.19167890	     39.64696520	      4.07408157	      0.00000000	      2.86204020	     -0.25346775	    -10.10018130	      5.49131479	      0.09584152	     39.18764396	     10.27383456	      0.00000000	      0.20579261	      1.08581630	      0.53904354	      0.38217746	      1.44413568	      0.57273376	      0.33809668	      2.64005375	      0.57273376	      0.23520038	      2.64005375	      0.47166310	      0.19109902	      2.21419660	      0.43797288	      0.11758990	      1.68192945	      0.40428266	      1.46995605	     12.28297113	      2.99799847	      0.00000000	      0.00000000	     25.01776724	     -4.41988589	     15.70980442	     24.57745440	    -17.31308298	    111.71757343	      8.57717880	      3.36272021	      3.45636823	     -5.98713783	     36.26571186	    -25.95452290	     16.04104244	    134.87930737	     65.10501952	     29.91516097	     17.66909332
